# xmcd
#
# Track frame offsets:
#	150
#	16749
#	33304
#	48003
#	66486
#	85140
#	102199
#	119235
#	135568
#	153392
#	169006
#	182526
#	197051
#	212401
#	230356
#	248655
#	267686
#	282308
#
# Disc length: 4099 seconds
#
# Revision: 0
# Processed by: cddbd v1.5.2PL0 Copyright (c) Steve Scherf et al.
# Submitted via: audiograbber 1.83.01
#
DISCID=f7100112
DTITLE=Anna Abreu - Greatest Hits
DYEAR=2012
DGENRE=Pop
TTITLE0=End Of Love
TTITLE1=Vinegar
TTITLE2=Music Everywhere
TTITLE3=Stereo
TTITLE4=Hysteria
TTITLE5=Ivory Tower
TTITLE6=Impatient
TTITLE7=Worst Part Is Over Feat. Redrama
TTITLE8=Silent Despair
TTITLE9=Be With You
TTITLE10=Slam
TTITLE11=Are You Ready
TTITLE12=2nd Chance
TTITLE13=Something About U
TTITLE14=Come Undone
TTITLE15=Do Avesso
TTITLE16=Everywhere I Go
TTITLE17=Stereo ( Runago Remix 2012)
EXTD=
EXTT0=
EXTT1=
EXTT2=
EXTT3=
EXTT4=
EXTT5=
EXTT6=
EXTT7=
EXTT8=
EXTT9=
EXTT10=
EXTT11=
EXTT12=
EXTT13=
EXTT14=
EXTT15=
EXTT16=
EXTT17=
PLAYORDER=
